# xmcd CD database file
#
# Track frame offsets:
#	150
#	12074
#	21622
#	35590
#	50899
#	66082
#	79637
#	97126
#	109369
#	123038
#	138243
#	155115
#
# Disc length: 2266 seconds
#
# Revision: 0
# Processed by: cddbd v1.5.2PL0 Copyright (c) Steve Scherf et al.
# Submitted via: CDex 1.51
#
DISCID=a608d80c
DTITLE=Graeme McCardle - Then And Now
DYEAR=2008
DGENRE=Country
TTITLE0=All You Really Need Is Love
TTITLE1=Kiss An Angel Good Morning
TTITLE2=I'm The One
TTITLE3=I Want To Dance With You
TTITLE4=You Lied To Me
TTITLE5=Honky Tonk Dancing Machine
TTITLE6=Neon Moon
TTITLE7=You're The Reason
TTITLE8=By My Side
TTITLE9=Seeing My Father In Me
TTITLE10=Don't Tell Momma
TTITLE11=Heaven In My Woman's Eyes
EXTD=YEAR: 2008
EXTT0=
EXTT1=
EXTT2=
EXTT3=
EXTT4=
EXTT5=
EXTT6=
EXTT7=
EXTT8=
EXTT9=
EXTT10=
EXTT11=
PLAYORDER=
